<svg aria-hidden="true" style="position: absolute; width: 0; height: 0; overflow: hidden;" version="1.1" xmlns="http://www.w3.org/2000/svg" xmlns:xlink="http://www.w3.org/1999/xlink">
<defs>
<symbol id="icon-direction" viewBox="0 0 46 32">
<path fill="none" stroke="#fff" style="stroke: var(--color1, #fff)" stroke-linejoin="round" stroke-linecap="round" stroke-miterlimit="4" stroke-width="3.4286" d="M43.429 16h-41.143M43.429 16l-13.714-13.714M43.429 16l-13.714 13.714"></path>
</symbol>
<symbol id="icon-person" viewBox="0 0 38 32">
<path d="M34.133 16v-9.333h3.733v11.2h-3.733zM34.133 25.333h3.733v-3.733h-3.733zM15.467 17.867c4.984 0 14.933 2.501 14.933 7.467v5.6h-29.867v-5.6c0-4.965 9.949-7.467 14.933-7.467zM15.467 1.067c1.98 0 3.879 0.787 5.28 2.187s2.187 3.299 2.187 5.28-0.787 3.879-2.187 5.28c-1.4 1.4-3.3 2.187-5.28 2.187s-3.879-0.787-5.28-2.187c-1.4-1.4-2.187-3.299-2.187-5.28s0.787-3.879 2.187-5.28c1.4-1.4 3.299-2.187 5.28-2.187zM15.467 21.413c-5.544 0-11.387 2.725-11.387 3.92v2.053h22.773v-2.053c0-1.195-5.843-3.92-11.387-3.92zM15.467 4.613c-1.040 0-2.037 0.413-2.772 1.148s-1.148 1.732-1.148 2.772c0 1.040 0.413 2.037 1.148 2.772s1.732 1.148 2.772 1.148c1.040 0 2.037-0.413 2.772-1.148s1.148-1.732 1.148-2.772-0.413-2.037-1.148-2.772c-0.735-0.735-1.732-1.148-2.772-1.148z"></path>
</symbol>
<symbol id="icon-search" viewBox="0 0 32 32">
<path stroke-linejoin="miter" stroke-linecap="round" stroke-miterlimit="4" stroke-width="2.56" d="M30.080 30.080l-6.699-6.711M27.093 14.4c0 3.366-1.337 6.595-3.718 8.976s-5.609 3.718-8.976 3.718c-3.367 0-6.595-1.337-8.976-3.718s-3.718-5.609-3.718-8.976c0-3.367 1.337-6.595 3.718-8.976s5.609-3.718 8.976-3.718c3.366 0 6.595 1.337 8.976 3.718s3.718 5.609 3.718 8.976v0z"></path>
</symbol>
<symbol id="icon-heart" viewBox="0 0 35 32">
<path stroke-linejoin="round" stroke-linecap="round" stroke-miterlimit="4" stroke-width="2.6667" d="M9.556 2c-4.295 0-7.778 3.447-7.778 7.7 0 3.433 1.361 11.581 14.759 19.818 0.24 0.146 0.515 0.223 0.796 0.223s0.556-0.077 0.796-0.223c13.398-8.237 14.759-16.385 14.759-19.818 0-4.253-3.483-7.7-7.778-7.7s-7.778 4.667-7.778 4.667-3.483-4.667-7.778-4.667z"></path>
</symbol>
<symbol id="icon-cart" viewBox="0 0 36 32">
<path d="M33.719 22.529h-22.655l1.137-2.317 18.9-0.034c0.639 0 1.187-0.456 1.301-1.088l2.617-14.651c0.068-0.384-0.034-0.78-0.285-1.080-0.124-0.148-0.279-0.267-0.454-0.349s-0.365-0.125-0.558-0.126l-24.044-0.080-0.205-0.966c-0.129-0.616-0.685-1.065-1.316-1.065h-5.878c-0.356 0-0.698 0.141-0.95 0.393s-0.393 0.593-0.393 0.95c0 0.356 0.142 0.698 0.393 0.95s0.593 0.393 0.95 0.393h4.79l0.898 4.268 2.21 10.702-2.846 4.645c-0.148 0.2-0.237 0.436-0.257 0.684s0.029 0.496 0.143 0.716c0.228 0.453 0.689 0.738 1.198 0.738h2.389c-0.509 0.676-0.784 1.501-0.784 2.347 0 2.153 1.75 3.903 3.903 3.903s3.903-1.75 3.903-3.903c0-0.848-0.282-1.674-0.784-2.347h6.129c-0.509 0.676-0.785 1.501-0.784 2.347 0 2.153 1.75 3.903 3.903 3.903s3.903-1.75 3.903-3.903c0-0.848-0.281-1.674-0.784-2.347h4.31c0.738 0 1.343-0.601 1.343-1.343-0.002-0.356-0.145-0.696-0.397-0.947s-0.594-0.392-0.949-0.392zM10.239 5.451l21.905 0.072-2.146 12.014-17.207 0.030-2.553-12.117zM13.925 28.76c-0.662 0-1.202-0.54-1.202-1.202s0.54-1.202 1.202-1.202c0.662 0 1.202 0.54 1.202 1.202 0 0.319-0.127 0.625-0.352 0.85s-0.531 0.352-0.85 0.352zM26.293 28.76c-0.662 0-1.202-0.54-1.202-1.202s0.54-1.202 1.202-1.202c0.662 0 1.202 0.54 1.202 1.202 0 0.319-0.127 0.625-0.352 0.85s-0.531 0.352-0.85 0.352z"></path>
</symbol>
</defs>
</svg>
